HIERARCHY
ROOT hip
{
  OFFSET 0 0 0
  CHANNELS 6 Xposition Yposition Zposition Zrotation Yrotation Xrotation
  JOINT abdomen
  {
    OFFSET 0 20.6881 -0.73152
    CHANNELS 3 Zrotation Xrotation Yrotation
    JOINT chest
    {
      OFFSET 0 11.7043 -0.48768
      CHANNELS 3 Zrotation Xrotation Yrotation
      JOINT neck
      {
        OFFSET 0 22.1894 -2.19456
        CHANNELS 3 Zrotation Xrotation Yrotation
        JOINT head
        {
          OFFSET -0.24384 7.07133 1.2192
          CHANNELS 3 Zrotation Xrotation Yrotation
          JOINT leftEye
          {
            OFFSET 4.14528 8.04674 8.04672
            CHANNELS 3 Zrotation Xrotation Yrotation
            End Site
            {
              OFFSET 1 0 0
            }
          }
          JOINT rightEye
          {
            OFFSET -3.6576 8.04674 8.04672
            CHANNELS 3 Zrotation Xrotation Yrotation
            End Site
            {
              OFFSET 1 0 0
            }
          }
        }
      }
      JOINT rCollar
      {
        OFFSET -2.68224 19.2634 -4.8768
        CHANNELS 3 Zrotation Xrotation Yrotation
        JOINT rShldr
        {
          OFFSET -8.77824 -1.95073 1.46304
          CHANNELS 3 Zrotation Xrotation Yrotation
          JOINT rForeArm
          {
            OFFSET -28.1742 -1.7115 0.48768
            CHANNELS 3 Zrotation Xrotation Yrotation
            JOINT rHand
            {
              OFFSET -22.5879 0.773209 7.07136
              CHANNELS 3 Zrotation Xrotation Yrotation
              JOINT rThumb1
              {
                OFFSET -1.2192 -0.487915 3.41376
                CHANNELS 3 Zrotation Xrotation Yrotation
                JOINT rThumb2
                {
                  OFFSET -3.37035 -0.52449 3.41376
                  CHANNELS 3 Zrotation Xrotation Yrotation
                  End Site
                  {
                    OFFSET -1.78271 -1.18214 1.43049
                  }
                }
              }
              JOINT rIndex1
              {
                OFFSET -7.75947 0.938293 5.60832
                CHANNELS 3 Zrotation Xrotation Yrotation
                JOINT rIndex2
                {
                  OFFSET -2.54057 -0.884171 1.56538
                  CHANNELS 3 Zrotation Xrotation Yrotation
                  End Site
                  {
                    OFFSET -1.62519 -0.234802 1.16502
                  }
                }
              }
              JOINT rMid1
              {
                OFFSET -8.24714 1.18213 3.41376
                CHANNELS 3 Zrotation Xrotation Yrotation
                JOINT rMid2
                {
                  OFFSET -3.10165 -0.590103 1.0647
                  CHANNELS 3 Zrotation Xrotation Yrotation
                  End Site
                  {
                    OFFSET -2.48547 -0.328903 0.83742
                  }
                }
              }
              JOINT rRing1
              {
                OFFSET -8.82822 0.546677 1.51678
                CHANNELS 3 Zrotation Xrotation Yrotation
                JOINT rRing2
                {
                  OFFSET -2.60934 -0.819778 -0.0198488
                  CHANNELS 3 Zrotation Xrotation Yrotation
                  End Site
                  {
                    OFFSET -2.33842 -0.294052 0.168128
                  }
                }
              }
              JOINT rPinky1
              {
                OFFSET -8.27202 -0.0477905 -0.4584
                CHANNELS 3 Zrotation Xrotation Yrotation
                JOINT rPinky2
                {
                  OFFSET -1.82734 -0.647385 -0.700984
                  CHANNELS 3 Zrotation Xrotation Yrotation
                  End Site
                  {
                    OFFSET -1.69225 -0.51767 -0.607171
                  }
                }
              }
            }
          }
        }
      }
      JOINT lCollar
      {
        OFFSET 2.68224 19.2634 -4.8768
        CHANNELS 3 Zrotation Xrotation Yrotation
        JOINT lShldr
        {
          OFFSET 8.77824 -1.95073 1.46304
          CHANNELS 3 Zrotation Xrotation Yrotation
          JOINT lForeArm
          {
            OFFSET 28.1742 -1.7115 0.48768
            CHANNELS 3 Zrotation Xrotation Yrotation
            JOINT lHand
            {
              OFFSET 22.5879 0.773209 7.07136
              CHANNELS 3 Zrotation Xrotation Yrotation
              JOINT lThumb1
              {
                OFFSET 1.2192 -0.487915 3.41376
                CHANNELS 3 Zrotation Xrotation Yrotation
                JOINT lThumb2
                {
                  OFFSET 3.37035 -0.52449 3.41376
                  CHANNELS 3 Zrotation Xrotation Yrotation
                  End Site
                  {
                    OFFSET 1.78271 -1.18214 1.43049
                  }
                }
              }
              JOINT lIndex1
              {
                OFFSET 7.75947 0.938293 5.60832
                CHANNELS 3 Zrotation Xrotation Yrotation
                JOINT lIndex2
                {
                  OFFSET 2.54057 -0.884171 1.56538
                  CHANNELS 3 Zrotation Xrotation Yrotation
                  End Site
                  {
                    OFFSET 1.62519 -0.234802 1.16502
                  }
                }
              }
              JOINT lMid1
              {
                OFFSET 8.24714 1.18213 3.41376
                CHANNELS 3 Zrotation Xrotation Yrotation
                JOINT lMid2
                {
                  OFFSET 3.10165 -0.590103 1.0647
                  CHANNELS 3 Zrotation Xrotation Yrotation
                  End Site
                  {
                    OFFSET 2.48547 -0.328903 0.83742
                  }
                }
              }
              JOINT lRing1
              {
                OFFSET 8.82822 0.546677 1.51678
                CHANNELS 3 Zrotation Xrotation Yrotation
                JOINT lRing2
                {
                  OFFSET 2.60934 -0.819778 -0.0198488
                  CHANNELS 3 Zrotation Xrotation Yrotation
                  End Site
                  {
                    OFFSET 2.33842 -0.294052 0.168128
                  }
                }
              }
              JOINT lPinky1
              {
                OFFSET 8.27202 -0.0477905 -0.4584
                CHANNELS 3 Zrotation Xrotation Yrotation
                JOINT lPinky2
                {
                  OFFSET 1.82734 -0.647385 -0.700984
                  CHANNELS 3 Zrotation Xrotation Yrotation
                  End Site
                  {
                    OFFSET 1.69225 -0.51767 -0.607171
                  }
                }
              }
            }
          }
        }
      }
    }
  }
  JOINT rButtock
  {
    OFFSET -8.77824 4.35084 1.2192
    CHANNELS 3 Zrotation Xrotation Yrotation
    JOINT rThigh
    {
      OFFSET 0 -1.70687 -2.19456
      CHANNELS 3 Zrotation Xrotation Yrotation
      JOINT rShin
      {
        OFFSET 0 -36.8199 0.73152
        CHANNELS 3 Zrotation Xrotation Yrotation
        JOINT rFoot
        {
          OFFSET 0.73152 -45.1104 -5.12064
          CHANNELS 3 Zrotation Xrotation Yrotation
          End Site
          {
            OFFSET -1.1221 -3.69964 12.103
          }
        }
      }
    }
  }
  JOINT lButtock
  {
    OFFSET 8.77824 4.35084 1.2192
    CHANNELS 3 Zrotation Xrotation Yrotation
    JOINT lThigh
    {
      OFFSET 0 -1.70687 -2.19456
      CHANNELS 3 Zrotation Xrotation Yrotation
      JOINT lShin
      {
        OFFSET 0 -36.8199 0.73152
        CHANNELS 3 Zrotation Xrotation Yrotation
        JOINT lFoot
        {
          OFFSET -0.73152 -45.1104 -5.12064
          CHANNELS 3 Zrotation Xrotation Yrotation
          End Site
          {
            OFFSET 1.1221 -3.69964 12.103
          }
        }
      }
    }
  }
}
MOTION
Frames:	5
Frame Time:	0.00833333
18.7933 81.0925 0.708903 11.1083 4.7344 15.2361 -10.1269 -9.00911 2.41939 -8.47241 2.13211 1.07113 1.74021 12.4203 15.1445 -21.9897 32.6722 37.4748 -0.0 0.0 0.0 -0.0 0.0 0.0 2.57002e-14 1.41631e-13 -2.18663e-14 85.0069 35.0865 -2.34681 -18.4118 -11.1364 34.9508 -2.12464 -37.657 -6.22605 -6.6616e-10 6.46029e-10 5.21113e-10 -1.16318e-09 1.13449e-09 8.80172e-10 -6.66157e-10 6.46033e-10 5.21107e-10 7.73091 5.47488 0.417314 -6.6616e-10 6.46031e-10 5.21114e-10 2.90554 0.965183 0.102902 -6.6615e-10 6.46031e-10 5.21109e-10 10.2786 0.731801 0.0259123 -6.66177e-10 6.46038e-10 5.21113e-10 2.22167 -0.733487 -0.20892 2.55816e-14 1.41636e-13 -2.2062e-14 -60.4446 41.8066 -11.1787 17.9434 -10.6259 -33.8933 19.007 -72.1527 25.8804 -6.6217e-11 -3.5739e-10 3.75002e-10 -1.33169e-10 -6.18064e-10 6.33746e-10 -6.62123e-11 -3.57376e-10 3.75003e-10 -7.73091 5.47488 -0.417314 -6.62139e-11 -3.57385e-10 3.74995e-10 -2.90554 0.965183 -0.102902 -6.62199e-11 -3.57386e-10 3.74997e-10 -10.2786 0.731801 -0.0259123 -6.62122e-11 -3.57386e-10 3.74986e-10 -2.22167 -0.733487 0.20892 -2.03217e-16 0.0 -3.88251e-19 2.15432 -50.267 37.879 -2.38675 71.8515 2.77841 -1.26046 10.8425 10.9467 2.03217e-16 0.0 3.88251e-19 -23.8292 -38.403 -8.87482 0.298983 42.6704 -0.830364 3.92214 -14.0597 11.564
18.7941 81.094 0.713359 11.0798 4.7919 15.2051 -10.0956 -8.98349 2.37748 -8.46243 2.1068 1.05546 1.67693 12.3312 15.1747 -21.9673 32.8062 37.5704 -0.0 0.0 0.0 -0.0 0.0 0.0 4.73238e-15 3.09446e-13 -3.90239e-14 84.9836 35.0287 -2.36638 -18.4102 -11.1346 34.947 -2.09213 -37.4189 -6.17258 -4.63419e-10 5.27234e-10 -1.43751e-10 -7.97559e-10 9.02497e-10 -2.62578e-10 -4.63416e-10 5.27239e-10 -1.4376e-10 7.73091 5.47488 0.417314 -4.63421e-10 5.27237e-10 -1.43753e-10 2.90554 0.965183 0.102902 -4.63412e-10 5.27237e-10 -1.43753e-10 10.2786 0.731801 0.0259123 -4.63431e-10 5.2724e-10 -1.43744e-10 2.22167 -0.733487 -0.20892 4.64731e-15 3.09445e-13 -3.92192e-14 -60.5081 41.7679 -11.1314 17.9484 -10.6313 -33.9047 18.9913 -72.1428 25.864 1.86578e-10 -2.7236e-11 2.31965e-10 3.06682e-10 -6.50682e-11 4.07353e-10 1.86582e-10 -2.72233e-11 2.31969e-10 -7.73091 5.47488 -0.417314 1.8658e-10 -2.72344e-11 2.31958e-10 -2.90554 0.965183 -0.102902 1.86575e-10 -2.72341e-11 2.31957e-10 -10.2786 0.731801 -0.0259123 1.86582e-10 -2.72331e-11 2.31944e-10 -2.22167 -0.733487 0.20892 -2.03217e-16 0.0 -3.88251e-19 2.14612 -50.2513 37.8433 -2.38065 71.8282 2.77171 -1.27577 10.9381 10.8968 2.03217e-16 0.0 3.88251e-19 -23.8007 -38.4 -8.83353 0.299097 42.6787 -0.830539 3.92161 -14.042 11.5746
18.8087 81.099 0.708217 11.1098 4.7867 15.2373 -10.0749 -8.98544 2.36068 -8.47184 2.11626 1.05069 1.64708 12.2829 15.1825 -21.9364 32.8637 37.5945 -0.0 0.0 0.0 -0.0 0.0 0.0 -3.85299e-14 4.39713e-13 -3.32964e-14 84.9757 34.982 -2.37145 -18.4092 -11.1335 34.9448 -2.07622 -37.3008 -6.14624 -5.91329e-11 1.84767e-10 -8.42554e-10 -8.25843e-11 2.85328e-10 -1.45782e-09 -5.91301e-11 1.84772e-10 -8.42564e-10 7.73091 5.47488 0.417314 -5.91347e-11 1.84771e-10 -8.42558e-10 2.90554 0.965183 0.102902 -5.9127e-11 1.84771e-10 -8.42555e-10 10.2786 0.731801 0.0259123 -5.91414e-11 1.84772e-10 -8.42542e-10 2.22167 -0.733487 -0.20892 -3.86011e-14 4.3971e-13 -3.34952e-14 -60.5302 41.7639 -11.1081 17.9598 -10.6435 -33.9301 18.9914 -72.1428 25.864 3.3933e-10 3.6174e-10 -9.62913e-11 5.87014e-10 6.05129e-10 -1.43704e-10 3.39333e-10 3.61752e-10 -9.62849e-11 -7.73091 5.47488 -0.417314 3.39332e-10 3.6174e-10 -9.62977e-11 -2.90554 0.965183 -0.102902 3.39326e-10 3.6174e-10 -9.62992e-11 -10.2786 0.731801 -0.0259123 3.39334e-10 3.61744e-10 -9.63136e-11 -2.22167 -0.733487 0.20892 -2.03217e-16 0.0 -3.88251e-19 2.09883 -50.216 37.7876 -2.37319 71.7937 2.7639 -1.2796 10.9725 10.8562 2.03217e-16 0.0 3.88251e-19 -23.7925 -38.3643 -8.81107 0.298246 42.6472 -0.829266 3.91838 -14.0384 11.5696
18.8241 81.1148 0.713639 11.1263 4.7914 15.2495 -10.0752 -9.02919 2.38441 -8.51257 2.1808 1.06341 1.67132 12.3036 15.1536 -21.8914 32.787 37.498 -0.0 0.0 0.0 -0.0 0.0 0.0 -1.35801e-13 5.60498e-13 1.92934e-14 84.9906 34.9476 -2.34977 -18.4067 -11.1307 34.9391 -2.08508 -37.3664 -6.16089 8.34588e-10 -6.65177e-10 -1.82445e-09 1.48503e-09 -1.21477e-09 -3.1272e-09 8.3459e-10 -6.65171e-10 -1.82446e-09 7.73091 5.47488 0.417314 8.34586e-10 -6.65173e-10 -1.82445e-09 2.90554 0.965183 0.102902 8.34592e-10 -6.65173e-10 -1.82445e-09 10.2786 0.731801 0.0259123 8.3458e-10 -6.65172e-10 -1.82443e-09 2.22167 -0.733487 -0.20892 -1.35893e-13 5.60498e-13 1.90845e-14 -60.4855 41.8171 -11.1236 17.9817 -10.6671 -33.979 19.0175 -72.1593 25.8914 3.64252e-10 9.8272e-10 -8.60059e-10 6.75414e-10 1.70283e-09 -1.45016e-09 3.6425e-10 9.82729e-10 -8.60053e-10 -7.73091 5.47488 -0.417314 3.64254e-10 9.82721e-10 -8.60065e-10 -2.90554 0.965183 -0.102902 3.64246e-10 9.82719e-10 -8.60066e-10 -10.2786 0.731801 -0.0259123 3.64256e-10 9.82726e-10 -8.60081e-10 -2.22167 -0.733487 0.20892 -2.03217e-16 0.0 -3.88251e-19 1.97877 -50.1483 37.6922 -2.36319 71.7397 2.75386 -1.26733 10.9202 10.8273 2.03217e-16 0.0 3.88251e-19 -23.8201 -38.2718 -8.81642 0.295665 42.5484 -0.825596 3.91047 -14.057 11.5393
18.8702 81.1653 0.786284 11.2267 4.8576 15.1587 -10.0867 -9.10267 2.43386 -8.57414 2.28304 1.08746 1.72817 12.3659 15.101 -21.836 32.6296 37.3259 -0.0 0.0 0.0 -0.0 0.0 0.0 -2.75281e-13 6.78052e-13 1.01576e-13 85.0206 34.9171 -2.31194 -18.403 -11.1265 34.9306 -2.10903 -37.5426 -6.20035 2.11442e-09 -1.91205e-09 -3.05454e-09 3.72589e-09 -3.40661e-09 -5.21365e-09 2.11442e-09 -1.91204e-09 -3.05455e-09 7.73091 5.47488 0.417314 2.11441e-09 -1.91205e-09 -3.05454e-09 2.90554 0.965183 0.102902 2.11442e-09 -1.91205e-09 -3.05454e-09 10.2786 0.731801 0.0259123 2.11441e-09 -1.91205e-09 -3.05453e-09 2.22167 -0.733487 -0.20892 -2.75415e-13 6.78057e-13 1.01352e-13 -60.3997 41.9077 -11.1618 18.0117 -10.6993 -34.0461 19.0615 -72.187 25.9376 3.00541e-10 1.79445e-09 -1.96394e-09 6.32964e-10 3.14977e-09 -3.34565e-09 3.00534e-10 1.79445e-09 -1.96394e-09 -7.73091 5.47488 -0.417314 3.00544e-10 1.79445e-09 -1.96395e-09 -2.90554 0.965183 -0.102902 3.00533e-10 1.79444e-09 -1.96394e-09 -10.2786 0.731801 -0.0259123 3.00546e-10 1.79445e-09 -1.96396e-09 -2.22167 -0.733487 0.20892 -2.03217e-16 0.0 -3.88251e-19 1.80931 -50.056 37.5688 -2.35058 71.6698 2.74142 -1.24421 10.8089 10.8068 2.03217e-16 0.0 3.88251e-19 -23.8693 -38.1394 -8.838 0.291898 42.4019 -0.820231 3.89881 -14.0905 11.4904
